HIERARCHY
ROOT SpineBase
{
  OFFSET 0.000000 0.000000 0.000000
  CHANNELS 6 Xposition Yposition Zposition Zrotation Xrotation Yrotation
  JOINT SpineMid
  {
    OFFSET 0.000000 29.986576 0.000000
    CHANNELS 3 Zrotation Xrotation Yrotation
    JOINT SpineShoulder
    {
      OFFSET 0.050281 22.184662 -1.019617
      CHANNELS 3 Zrotation Xrotation Yrotation
      JOINT Neck
      {
        OFFSET -0.021883 7.323038 -0.715589
        CHANNELS 3 Zrotation Xrotation Yrotation
        JOINT Head
        {
          OFFSET 4.283839 13.391338 1.594765
          CHANNELS 3 Zrotation Xrotation Yrotation
          End Site
          {
            OFFSET 0 0 0
          }
        }
      }
      JOINT ShoulderLeft
      {
        OFFSET -9.993715 -3.529761 -11.882200
        CHANNELS 3 Zrotation Xrotation Yrotation
        JOINT ElbowLeft
        {
          OFFSET -3.721245 -23.214566 -4.689653
          CHANNELS 3 Zrotation Xrotation Yrotation
          JOINT WristLeft
          {
            OFFSET 7.064377 -21.220832 -1.979173
            CHANNELS 3 Zrotation Xrotation Yrotation
            JOINT HandLeft
            {
              OFFSET 1.973417 -5.002705 0.309587
              CHANNELS 3 Zrotation Xrotation Yrotation
              JOINT HandTipLeft
              {
                OFFSET 2.647226 -6.888550 0.729767
                CHANNELS 3 Zrotation Xrotation Yrotation
                End Site
                {
                  OFFSET 0 0 0
                }
              }
              JOINT ThumbLeft
              {
                OFFSET -3.238923 -2.137767 -0.486894
                CHANNELS 3 Zrotation Xrotation Yrotation
                End Site
                {
                  OFFSET 0 0 0
                }
              }
            }
          }
        }
      }
      JOINT ShoulderRight
      {
        OFFSET 11.560316 -4.739865 8.784735
        CHANNELS 3 Zrotation Xrotation Yrotation
        JOINT ElbowRight
        {
          OFFSET 1.678009 -26.490035 9.728133
          CHANNELS 3 Zrotation Xrotation Yrotation
          JOINT WristRight
          {
            OFFSET 0.991809 -24.622019 1.371323
            CHANNELS 3 Zrotation Xrotation Yrotation
            JOINT HandRight
            {
              OFFSET -0.666898 -4.575005 -6.766712
              CHANNELS 3 Zrotation Xrotation Yrotation
              JOINT HandTipRight
              {
                OFFSET 0.153251 -1.568062 -1.281620
                CHANNELS 3 Zrotation Xrotation Yrotation
                End Site
                {
                  OFFSET 0 0 0
                }
              }
              JOINT ThumbRight
              {
                OFFSET -0.759623 0.508091 -2.333394
                CHANNELS 3 Zrotation Xrotation Yrotation
                End Site
                {
                  OFFSET 0 0 0
                }
              }
            }
          }
        }
      }
    }
  }
  JOINT HipLeft
  {
    OFFSET -5.319750 1.581980 -7.732174
    CHANNELS 3 Zrotation Xrotation Yrotation
    JOINT KneeLeft
    {
      OFFSET -6.853493 -28.328747 1.845240
      CHANNELS 3 Zrotation Xrotation Yrotation
      JOINT AnkleLeft
      {
        OFFSET -5.774110 -33.410443 7.502464
        CHANNELS 3 Zrotation Xrotation Yrotation
        JOINT FootLeft
        {
          OFFSET 7.273393 -3.803716 -10.062542
          CHANNELS 3 Zrotation Xrotation Yrotation
          End Site
          {
            OFFSET 0 0 0
          }
        }
      }
    }
  }
  JOINT HipRight
  {
    OFFSET 5.765016 -0.019939 0.719342
    CHANNELS 3 Zrotation Xrotation Yrotation
    JOINT KneeRight
    {
      OFFSET -2.611388 -26.502489 7.206134
      CHANNELS 3 Zrotation Xrotation Yrotation
      JOINT AnkleRight
      {
        OFFSET -5.365184 -31.631918 5.962218
        CHANNELS 3 Zrotation Xrotation Yrotation
        JOINT FootRight
        {
          OFFSET 7.124879 -3.852932 -10.091465
          CHANNELS 3 Zrotation Xrotation Yrotation
          End Site
          {
            OFFSET 0 0 0
          }
        }
      }
    }
  }
}
MOTION
Frames: 7
Frame Time: 0.033333
-12.833952 65.071402 344.818944 -3.158738 -1.153054 -20.606977 -0.661314 0.780981 20.449140 -0.268502 0.110133 -0.204189 17.565102 -13.932670 5.201823 0.000000 0.000000 0.000000 -5.297506 -12.270227 3.255860 -7.958682 19.260619 4.063643 11.062886 -1.360220 -1.317901 -25.854215 1.838930 -4.079143 0.000000 0.000000 0.000000 0.000000 0.000000 0.000000 86.205010 -1.424692 34.931672 89.559799 -10.979688 -108.668120 -84.597384 17.129851 -72.850008 15.864218 27.514432 7.791833 0.000000 0.000000 0.000000 0.000000 0.000000 0.000000 -0.266958 3.742220 19.946936 3.375178 -0.323907 0.728831 -5.871422 -0.418038 15.781840 0.000000 0.000000 0.000000 -1.473457 3.119003 19.549811 3.127454 -4.433599 1.507508 -4.234571 3.943097 15.775558 0.000000 0.000000 0.000000
-12.711086 65.067377 344.837008 -3.002022 -1.221400 -20.376773 -0.697688 0.721691 20.221735 -0.181668 0.066272 -0.192830 18.033215 -13.676202 5.098058 0.000000 0.000000 0.000000 -5.223542 -12.315464 3.252125 -8.245506 19.417041 4.140329 14.509558 0.985721 0.212198 -27.363219 0.596287 -5.926992 0.000000 0.000000 0.000000 0.000000 0.000000 0.000000 87.934767 0.223563 34.798613 87.438691 -9.936884 -112.869993 -72.027687 -0.072571 -76.222244 6.323804 25.406520 11.828259 0.000000 0.000000 0.000000 0.000000 0.000000 0.000000 -0.515624 3.744340 19.712542 3.317112 -0.290481 0.695745 -5.775484 -0.479047 15.977626 0.000000 0.000000 0.000000 -1.558289 3.212568 19.343424 2.898842 -4.531374 1.460097 -4.155462 3.989581 15.955582 0.000000 0.000000 0.000000
-12.554619 65.061721 344.824309 -2.787383 -1.264242 -20.010251 -0.721339 0.681869 19.862595 -0.111980 0.031257 -0.178816 18.439176 -13.470096 4.999510 0.000000 0.000000 0.000000 -5.175914 -12.385850 3.231843 -8.994173 19.496641 4.364012 18.795085 3.282900 1.584793 -30.032614 0.460895 -7.232344 0.000000 0.000000 0.000000 0.000000 0.000000 0.000000 89.595862 2.311597 34.346657 83.445383 -8.161939 -111.365650 -67.104728 0.168617 -75.012588 8.324075 21.958849 11.832230 0.000000 0.000000 0.000000 0.000000 0.000000 0.000000 -0.813366 3.702862 19.342033 3.196093 -0.276844 0.648381 -5.600708 -0.510825 16.202684 0.000000 0.000000 0.000000 -1.681860 3.208611 18.998385 2.709874 -4.603960 1.421596 -4.092517 4.079748 16.144464 0.000000 0.000000 0.000000
-12.379067 65.053517 344.786576 -2.536005 -1.276337 -19.556365 -0.747107 0.653897 19.419035 -0.075737 0.005828 -0.165456 18.832118 -13.336892 4.924074 0.000000 0.000000 0.000000 -5.116920 -12.516654 3.204555 -9.457089 19.616008 4.494809 20.462814 5.245248 2.462067 -29.616860 0.727659 -7.482563 0.000000 0.000000 0.000000 0.000000 0.000000 0.000000 91.094550 7.120461 31.857460 82.836995 -6.368671 -119.279495 -68.234378 -5.583359 -72.045087 10.380924 24.700346 11.452095 0.000000 0.000000 0.000000 0.000000 0.000000 0.000000 -1.116453 3.651668 18.880618 3.110528 -0.331165 0.627508 -5.488911 -0.480354 16.447353 0.000000 0.000000 0.000000 -1.804710 3.142445 18.569773 2.487547 -4.647887 1.371127 -4.014494 4.182573 16.373677 0.000000 0.000000 0.000000
-12.208295 65.036280 344.680319 -2.299751 -1.187282 -18.945483 -0.763114 0.576152 18.817565 -0.074725 -0.002385 -0.155869 19.017825 -13.298809 4.887014 0.000000 0.000000 0.000000 -5.058021 -12.776486 3.187441 -9.590291 20.179150 4.704122 18.109946 6.062780 2.677789 -23.928868 -0.898881 -7.325377 0.000000 0.000000 0.000000 0.000000 0.000000 0.000000 91.825723 13.584573 27.454912 90.968723 -3.767767 -171.944212 -51.896924 -54.563957 -49.136736 -0.564161 29.477549 13.961077 0.000000 0.000000 0.000000 0.000000 0.000000 0.000000 -1.216119 3.578392 18.261695 2.823303 -0.507837 0.603713 -5.351558 -0.323310 16.775322 0.000000 0.000000 0.000000 -1.781918 2.869939 18.000361 2.135179 -4.521487 1.267045 -3.878789 4.271812 16.699981 0.000000 0.000000 0.000000
-12.032855 65.003784 344.531387 -2.064040 -1.034755 -18.196617 -0.756940 0.450287 18.077533 -0.071308 0.001975 -0.145382 19.626603 -13.420122 4.930486 0.000000 0.000000 0.000000 -4.937805 -12.937282 3.149920 -9.627573 20.409264 4.747698 18.332843 6.908190 3.075644 -21.117272 1.257037 -5.360385 0.000000 0.000000 0.000000 0.000000 0.000000 0.000000 91.371061 20.534365 21.754481 97.437988 6.765520 137.501220 40.567976 -62.397846 49.592623 -18.586940 29.847318 18.050039 0.000000 0.000000 0.000000 0.000000 0.000000 0.000000 -1.179071 3.466947 17.509677 2.428564 -0.723271 0.574743 -5.253347 -0.101309 17.224505 0.000000 0.000000 0.000000 -1.684740 2.594632 17.306427 1.533744 -4.542962 1.121618 -3.600593 4.476965 17.172925 0.000000 0.000000 0.000000
-11.855372 64.965117 344.341922 -1.824324 -0.809267 -17.410555 -0.729179 0.324819 17.301655 -0.054040 0.064236 -0.130441 20.537302 -13.746408 5.063898 0.000000 0.000000 0.000000 -4.764927 -13.152219 3.079943 -9.594603 20.505248 4.713192 18.884345 7.898101 3.534003 -20.386273 2.027959 -4.880248 0.000000 0.000000 0.000000 0.000000 0.000000 0.000000 90.630637 27.559433 15.621884 97.248671 19.198832 133.251843 42.848400 -60.102390 55.141389 -25.877103 27.600646 18.696464 0.000000 0.000000 0.000000 0.000000 0.000000 0.000000 -1.019178 3.293055 16.727248 1.883010 -1.000227 0.531790 -5.162038 0.218290 17.864495 0.000000 0.000000 0.000000 -1.597535 2.243175 16.568730 0.891036 -4.630827 0.978510 -3.313408 4.761242 17.837856 0.000000 0.000000 0.000000
